<?xml version="1.0" standalone="no"?>
<!DOCTYPE svg PUBLIC "-//W3C//DTD SVG 20010904//EN"
 "http://www.w3.org/TR/2001/REC-SVG-20010904/DTD/svg10.dtd">
<svg version="1.0" xmlns="http://www.w3.org/2000/svg"
 width="512.000000pt" height="512.000000pt" viewBox="0 0 512.000000 512.000000"
 preserveAspectRatio="xMidYMid meet">

<g transform="translate(0.000000,512.000000) scale(0.100000,-0.100000)"
fill="#000000" stroke="none">
<path d="M2563 5088 c-28 -7 -33 -13 -33 -38 0 -41 2 -46 19 -42 21 5 61 -7
61 -18 0 -13 -87 -13 -95 0 -10 16 -25 1 -25 -26 0 -26 2 -26 75 -26 83 0 83
0 78 27 -3 13 -11 30 -19 36 -8 6 -14 23 -15 38 -1 48 -11 58 -46 49z"/>
<path d="M2432 4914 c-5 -9 -7 -25 -5 -34 3 -12 -7 -25 -31 -39 -23 -15 -36
-30 -36 -44 0 -18 -2 -19 -10 -7 -8 13 -10 12 -10 -2 0 -10 -4 -18 -10 -18 -5
0 -10 -9 -10 -20 0 -10 -14 -35 -31 -54 l-31 -35 46 -57 c25 -31 46 -63 46
-73 0 -18 -115 -135 -142 -144 -10 -4 -18 -12 -18 -19 0 -7 -30 -44 -67 -82
-38 -38 -63 -66 -57 -62 7 3 14 -1 17 -8 6 -15 -153 -180 -162 -170 -3 3 30
37 72 77 42 40 77 77 77 81 0 5 -8 2 -17 -5 -11 -10 -14 -10 -9 -1 9 15 -4 16
-24 1 -12 -9 -12 -12 -1 -16 9 -4 -4 -22 -40 -59 -29 -29 -57 -50 -62 -47 -6
3 -7 1 -4 -4 4 -6 0 -16 -8 -23 -10 -9 -11 -18 -4 -37 7 -20 7 -24 -4 -20 -9
3 -42 -23 -83 -64 -38 -38 -76 -69 -86 -69 -24 0 -31 -16 -17 -41 9 -17 8 -20
-3 -16 -7 2 -40 -21 -72 -52 -32 -31 -56 -48 -53 -39 3 10 1 20 -5 24 -7 4 -8
3 -4 -4 4 -7 2 -12 -5 -12 -7 0 -33 -20 -58 -44 -46 -42 -55 -66 -25 -66 9 0
12 -4 9 -10 -3 -5 -15 -10 -26 -10 -14 0 -19 7 -19 26 0 15 -4 23 -11 19 -6
-4 -8 -13 -6 -19 3 -7 1 -19 -4 -27 -7 -11 -9 -10 -9 4 0 10 -5 15 -10 12 -6
-4 -8 -11 -5 -16 4 -5 2 -9 -4 -9 -5 0 -13 5 -16 10 -3 6 -12 10 -18 10 -7 0
-6 -4 3 -10 8 -5 12 -11 9 -14 -3 -3 -14 1 -25 8 -18 14 -18 15 6 26 l25 10
-26 -3 c-21 -3 -25 0 -21 15 2 10 -1 18 -7 18 -7 0 -9 -4 -6 -10 3 -5 -1 -10
-9 -10 -15 0 -23 -19 -30 -66 -2 -10 -11 -21 -22 -23 -10 -2 -24 -11 -30 -19
-10 -14 -5 -21 27 -46 25 -19 39 -38 39 -53 0 -28 37 -63 67 -63 13 0 35 7 49
16 20 14 30 15 50 6 13 -7 27 -18 30 -26 3 -8 164 -173 359 -368 194 -194 359
-367 368 -383 19 -38 11 -86 -15 -93 -12 -3 -17 -10 -13 -19 7 -19 -144 -176
-162 -169 -8 4 -13 -3 -13 -17 0 -17 -37 -58 -130 -146 -72 -67 -128 -127
-124 -132 3 -5 1 -8 -5 -7 -6 2 -74 -60 -151 -137 -127 -127 -142 -139 -160
-127 -27 17 -50 15 -27 -2 9 -7 17 -24 17 -37 0 -18 -3 -20 -9 -10 -5 7 -13
11 -19 7 -6 -3 -18 1 -26 10 -15 14 -16 14 -16 -3 -1 -15 -4 -14 -24 8 l-23
26 -11 -31 c-6 -17 -22 -36 -34 -41 -12 -6 -28 -21 -35 -35 -12 -23 -10 -28
22 -58 19 -18 35 -38 35 -45 0 -6 11 -25 24 -42 21 -27 29 -29 75 -27 45 2 58
-2 96 -30 24 -18 55 -41 69 -50 29 -21 86 -103 86 -124 0 -7 7 -14 16 -14 12
0 288 -268 369 -358 46 -52 117 -112 132 -112 24 0 133 -110 133 -134 0 -11
10 -30 21 -42 19 -20 20 -27 10 -52 -7 -17 -26 -42 -42 -58 -35 -34 -36 -41
-5 -73 14 -15 31 -44 38 -66 10 -30 25 -47 61 -70 41 -26 46 -33 41 -57 -4
-22 0 -29 25 -43 17 -8 33 -26 37 -39 3 -14 14 -32 25 -42 12 -11 19 -30 19
-56 0 -66 62 -64 68 2 2 19 12 45 23 58 10 14 19 32 19 41 0 9 14 24 31 34 25
14 30 22 27 42 -4 21 3 31 42 59 34 24 52 46 60 73 7 21 23 50 36 66 40 48 28
53 -109 44 -122 -8 -326 -2 -382 11 -16 4 -31 13 -33 20 -2 10 2 10 18 2 13
-7 103 -10 260 -9 l240 1 -20 26 c-39 49 -30 64 126 218 80 79 152 144 160
144 8 0 14 5 14 11 0 16 160 189 175 189 7 0 24 18 39 39 15 22 51 59 79 83
29 23 70 63 92 88 22 25 72 78 111 119 l72 75 40 -13 c36 -12 44 -11 79 5 27
13 41 28 47 51 6 20 23 40 48 55 20 12 38 26 38 29 0 4 -20 25 -45 48 -25 23
-45 43 -45 46 0 3 0 9 0 13 0 5 -11 14 -25 20 -34 16 -43 15 -22 -1 17 -11 17
-13 0 -27 -10 -8 -31 -15 -48 -15 -16 0 -36 -4 -42 -8 -10 -7 -12 -2 -9 20 1
17 6 36 11 42 4 8 -7 29 -31 54 -30 32 -31 35 -7 13 18 -16 35 -27 38 -25 2 3
-59 68 -137 144 -78 77 -135 131 -127 120 13 -18 13 -19 -3 -7 -10 8 -14 20
-11 29 5 12 2 15 -10 10 -18 -7 -77 36 -77 56 0 6 6 4 13 -4 6 -8 23 -23 37
-34 l25 -20 -25 30 c-14 17 -123 128 -242 249 -265 265 -259 250 -134 384 27
28 57 52 66 52 10 0 20 10 24 23 3 13 50 67 103 119 54 53 112 111 128 129 17
19 51 52 76 74 25 22 57 61 72 86 30 53 118 136 153 145 13 4 32 -1 46 -10 45
-32 122 -8 134 42 4 15 24 42 45 60 32 28 37 36 26 47 -7 7 -22 15 -33 17 -10
2 -18 11 -18 21 1 9 -2 17 -6 17 -5 0 -12 14 -15 31 -5 22 -10 28 -15 18 -5
-7 -6 -17 -4 -21 3 -4 -2 -5 -10 -2 -9 3 -16 2 -16 -2 0 -5 -14 -9 -30 -10
-17 -1 -30 4 -30 9 0 6 -7 2 -15 -9 -13 -18 -14 -17 -11 17 2 31 -1 35 -17 31
-12 -3 -32 7 -56 29 -25 23 -23 20 6 -9 46 -46 61 -94 23 -70 -11 7 -18 19
-15 25 2 7 -1 13 -7 13 -6 0 -50 41 -99 90 -68 70 -91 89 -106 83 -15 -6 -16
-5 -5 9 11 14 0 28 -80 106 -69 67 -96 88 -105 80 -10 -8 -12 -4 -7 21 5 23 3
31 -8 31 -7 0 -47 34 -88 75 -40 40 -77 72 -82 69 -4 -3 -8 6 -8 20 0 14 -6
26 -13 26 -18 0 -119 110 -114 125 3 7 -24 41 -59 76 -40 39 -64 72 -64 85 0
12 16 45 35 74 42 62 43 76 10 102 -16 13 -25 29 -25 48 0 34 -15 47 -35 30
-12 -10 -22 -10 -47 1 -24 10 -33 10 -36 1 -2 -7 -15 -12 -28 -12 -22 0 -23 2
-14 21 l12 21 -29 -20 c-46 -34 -79 -32 -124 5 l-33 28 18 -28 c18 -27 18 -27
-6 -27 -13 0 -29 5 -35 11 -8 8 -17 8 -31 0 -31 -16 -47 -15 -32 4 6 8 9 19 6
24 -4 5 -2 12 4 16 5 3 10 1 10 -5 0 -7 6 -8 18 -2 23 13 271 13 293 1 10 -5
19 -6 22 -1 2 4 3 2 1 -4 -1 -6 2 -17 7 -25 8 -12 10 -12 19 1 8 12 2 22 -25
45 -24 20 -35 39 -35 56 0 15 -7 30 -16 33 -8 3 -13 2 -10 -3 3 -5 -8 -11 -25
-15 -67 -13 -214 -2 -203 15 3 5 3 9 0 9 -3 0 -9 -7 -14 -16z m71 -161 c-7 -2
-21 -2 -30 0 -10 3 -4 5 12 5 17 0 24 -2 18 -5z m160 0 c-7 -2 -21 -2 -30 0
-10 3 -4 5 12 5 17 0 24 -2 18 -5z m-348 -73 c-3 -5 -14 -10 -23 -10 -15 0
-15 2 -2 10 20 13 33 13 25 0z m255 1 c28 -1 40 -4 32 -10 -7 -4 -59 -6 -115
-5 -56 2 -110 3 -120 4 -10 0 -16 4 -13 9 5 7 68 8 216 2z m135 -1 c4 -6 -7
-10 -25 -10 -18 0 -29 4 -25 10 3 6 15 10 25 10 10 0 22 -4 25 -10z m135 -6
c0 -2 -7 -4 -15 -4 -8 0 -15 4 -15 10 0 5 7 7 15 4 8 -4 15 -8 15 -10z m-72
-1 c-10 -2 -26 -2 -35 0 -10 3 -2 5 17 5 19 0 27 -2 18 -5z m-423 -223 c-16
-16 -33 -30 -39 -30 -5 0 3 14 19 30 16 17 33 30 39 30 5 0 -3 -13 -19 -30z
m549 -79 c-3 -3 -9 1 -13 8 -5 7 -14 10 -20 7 -7 -4 -11 1 -11 12 0 14 -11 24
-32 31 -26 9 -30 14 -18 21 11 7 26 -1 57 -32 24 -23 40 -44 37 -47z m-614 3
c0 -8 -4 -13 -10 -9 -5 3 -43 -27 -85 -66 -41 -39 -75 -67 -75 -62 0 5 5 14
12 21 7 7 8 12 3 12 -5 0 8 18 29 39 21 22 44 37 51 35 7 -3 23 8 36 24 25 30
39 32 39 6z m395 -121 c28 -40 33 -42 83 -42 28 -1 52 -5 52 -10 0 -4 11 -20
25 -35 17 -18 34 -26 59 -26 40 0 96 -41 96 -71 0 -10 7 -37 16 -60 18 -42 43
-59 93 -59 33 0 81 -46 81 -79 0 -30 28 -81 56 -104 19 -15 24 -28 24 -67 0
-44 3 -50 33 -69 52 -32 123 -141 93 -141 -14 0 -61 -68 -58 -83 1 -4 -14 -15
-33 -24 -34 -16 -35 -19 -35 -70 0 -51 1 -53 27 -53 43 0 20 -10 -27 -12 -36
-1 -45 -6 -61 -32 -10 -17 -19 -42 -19 -57 0 -36 -57 -89 -92 -85 -15 2 -25
-1 -22 -5 3 -5 -4 -9 -15 -9 -25 0 -47 -33 -56 -83 -4 -20 -11 -40 -16 -43 -5
-3 -6 -10 -3 -16 4 -6 2 -8 -4 -4 -6 3 -17 -2 -24 -11 -7 -10 -24 -19 -38 -21
-71 -7 -77 -12 -96 -78 -11 -38 -20 -54 -32 -54 -10 0 -230 213 -490 473 -428
429 -473 476 -467 499 4 17 20 32 47 44 39 18 76 72 63 93 -6 11 35 71 55 82
8 4 32 11 53 14 49 8 77 36 77 77 0 47 61 108 108 108 27 0 42 8 68 35 28 30
39 35 81 35 43 1 50 4 68 33 11 18 42 47 69 65 l48 32 41 -22 c23 -13 55 -42
72 -65z m99 -1532 c-2 -3 -217 207 -476 467 -260 259 -475 467 -478 462 -3 -5
-11 -5 -20 0 -12 8 -12 10 4 10 19 0 18 1 -2 23 -12 13 -22 27 -22 33 0 5 225
-216 500 -491 274 -274 497 -501 494 -504z m-1009 969 c3 -6 -1 -7 -9 -4 -18
7 -21 14 -7 14 6 0 13 -4 16 -10z m-21 -129 c-6 -7 -44 31 -44 43 0 6 11 -1
24 -14 13 -14 22 -27 20 -29z m-70 -54 c5 -21 4 -21 -14 3 -23 29 -26 48 -6
31 8 -6 16 -22 20 -34z m1926 13 c0 -5 -7 -10 -16 -10 -8 0 -12 5 -9 10 3 6
10 10 16 10 5 0 9 -4 9 -10z m50 0 c0 -5 -5 -10 -11 -10 -5 0 -7 5 -4 10 3 6
8 10 11 10 2 0 4 -4 4 -10z m-5 -38 c-3 -3 -11 0 -18 7 -9 10 -8 11 6 5 10 -3
15 -9 12 -12z m-2155 4 c0 -3 -4 -8 -10 -11 -5 -3 -10 -1 -10 4 0 6 5 11 10
11 6 0 10 -2 10 -4z m301 -14 c31 -36 31 -46 1 -18 -18 17 -32 31 -32 33 0 9
18 1 31 -15z m-41 -17 c20 -24 6 -28 -15 -5 -10 11 -13 20 -8 20 6 0 16 -7 23
-15z m-260 -35 c0 -5 -5 -10 -11 -10 -5 0 -7 5 -4 10 3 6 8 10 11 10 2 0 4 -4
4 -10z m400 0 c0 -5 -12 -10 -27 -9 l-28 1 25 8 c14 4 26 8 28 9 1 1 2 -3 2
-9z m1510 0 c0 -5 -5 -10 -11 -10 -5 0 -7 5 -4 10 3 6 8 10 11 10 2 0 4 -4 4
-10z m-1860 -40 c0 -5 -4 -10 -10 -10 -5 0 -10 5 -10 10 0 6 5 10 10 10 6 0
10 -4 10 -10z m99 -59 c13 -15 69 -72 125 -128 55 -57 98 -103 96 -103 -3 0
-68 64 -145 142 -77 78 -131 135 -120 128 11 -8 31 -25 44 -39z m336 -41 c33
-33 57 -60 54 -60 -2 0 -31 27 -64 60 -33 33 -57 60 -54 60 2 0 31 -27 64 -60z
m-220 20 c3 -5 1 -10 -4 -10 -6 0 -11 5 -11 10 0 6 2 10 4 10 3 0 8 -4 11 -10z
m510 -100 c3 -5 -1 -10 -10 -10 -9 0 -13 5 -10 10 3 6 8 10 10 10 2 0 7 -4 10
-10z m-96 -114 c19 -20 32 -38 30 -41 -3 -2 -32 23 -65 57 -33 35 -46 52 -29
40 17 -11 45 -36 64 -56z m1101 11 c0 -2 -15 -16 -32 -33 l-33 -29 29 33 c28
30 36 37 36 29z m-1335 -77 c10 -11 16 -20 13 -20 -3 0 -13 9 -23 20 -10 11
-16 20 -13 20 3 0 13 -9 23 -20z m496 -66 c9 -11 2 -9 -18 6 -18 13 -33 25
-33 27 0 8 38 -17 51 -33z m729 33 c0 -1 -33 -34 -72 -72 l-73 -70 70 73 c64
67 75 77 75 69z m-760 -47 c0 -5 -2 -10 -4 -10 -3 0 -8 5 -11 10 -3 6 -1 10 4
10 6 0 11 -4 11 -10z m105 -100 c49 -59 44 -75 -7 -20 -35 37 -43 42 -46 27
-4 -18 -4 -18 -17 0 -10 14 -11 21 -2 32 9 11 9 15 0 18 -7 3 -13 9 -13 15 0
14 44 -23 85 -72z m475 -33 c0 -1 -28 -29 -62 -62 l-63 -60 60 63 c55 58 65
67 65 59z m-406 -64 l19 -26 -31 18 c-17 10 -29 22 -26 27 9 13 18 9 38 -19z
m153 -10 c-8 -7 -37 9 -31 19 3 5 12 4 20 -3 8 -6 13 -14 11 -16z m-100 -79
c-9 -9 -28 6 -21 18 4 6 10 6 17 -1 6 -6 8 -13 4 -17z m68 -62 c-7 -8 -35 7
-35 18 0 6 7 6 20 -2 10 -7 17 -14 15 -16z m210 -2 c10 -11 16 -20 13 -20 -3
0 -13 9 -23 20 -10 11 -16 20 -13 20 3 0 13 -9 23 -20z m73 -75 c-3 -4 -16 9
-28 27 l-23 33 28 -27 c16 -15 26 -30 23 -33z m-401 -37 c-3 -8 -6 -5 -6 6 -1
11 2 17 5 13 3 -3 4 -12 1 -19z m314 -10 c49 -40 43 -50 -8 -12 -55 40 -59 44
-44 44 7 0 30 -14 52 -32z m-40 -482 c250 -249 473 -465 497 -480 23 -15 48
-38 54 -52 11 -23 7 -29 -37 -74 -40 -40 -56 -50 -83 -50 -62 0 -101 -34 -102
-88 0 -25 -9 -43 -37 -70 -21 -21 -44 -38 -50 -38 -7 -1 -26 -2 -43 -2 -33 -2
-60 -41 -60 -88 0 -36 -45 -84 -79 -84 -30 0 -89 -33 -97 -55 -4 -11 -21 -15
-59 -15 -52 0 -55 -1 -82 -42 -16 -24 -48 -53 -71 -66 l-42 -24 -48 29 c-26
16 -58 46 -71 66 -23 35 -27 37 -77 37 -49 0 -53 2 -73 36 -20 34 -24 36 -65
32 -25 -1 -43 -1 -41 1 2 2 -9 14 -26 28 -17 15 -29 34 -29 49 0 37 -26 91
-48 103 -12 6 -33 11 -48 11 -42 0 -94 55 -94 99 -1 43 -14 62 -57 85 -32 16
-33 18 -33 82 0 56 -2 65 -16 60 -8 -3 -13 -2 -10 3 3 4 -5 13 -18 19 -19 9
-86 92 -86 107 0 16 78 108 101 121 26 13 29 20 30 67 1 28 1 57 0 64 -1 6 7
14 18 18 37 12 71 53 71 87 0 46 61 108 107 108 42 0 70 27 79 77 9 50 58 103
97 103 38 0 87 49 87 86 0 19 12 41 37 66 20 21 40 38 44 38 3 0 211 -204 460
-454z m130 387 c13 -16 12 -17 -3 -4 -17 13 -22 21 -14 21 2 0 10 -8 17 -17z
m33 -39 c5 -14 4 -15 -9 -4 -17 14 -19 20 -6 20 5 0 12 -7 15 -16z m-914 -24
c0 -5 -2 -10 -4 -10 -3 0 -8 5 -11 10 -3 6 -1 10 4 10 6 0 11 -4 11 -10z
m1075 -20 c3 -5 2 -10 -4 -10 -5 0 -13 5 -16 10 -3 6 -2 10 4 10 5 0 13 -4 16
-10z m115 -80 c0 -5 -2 -10 -4 -10 -3 0 -8 5 -11 10 -3 6 -1 10 4 10 6 0 11
-4 11 -10z m-1385 -80 c3 -5 1 -10 -4 -10 -6 0 -11 5 -11 10 0 6 2 10 4 10 3
0 8 -4 11 -10z m1595 -132 c0 -13 -5 -9 -31 19 l-24 26 27 -19 c15 -10 28 -22
28 -26z m-595 14 c-3 -3 -11 0 -18 7 -9 10 -8 11 6 5 10 -3 15 -9 12 -12z
m-1183 -34 c-7 -7 -12 -21 -12 -32 0 -17 -2 -18 -10 -6 -6 10 -4 20 7 32 9 10
19 18 22 18 3 0 0 -5 -7 -12z m1808 -9 c0 -6 -4 -7 -10 -4 -5 3 -10 11 -10 16
0 6 5 7 10 4 6 -3 10 -11 10 -16z m60 -64 c8 -11 0 -7 -18 9 -18 17 -32 33
-32 38 0 9 27 -17 50 -47z m-375 -55 c3 -6 -1 -7 -9 -4 -18 7 -21 14 -7 14 6
0 13 -4 16 -10z m409 -15 c6 -17 4 -18 -18 -9 -20 8 -21 24 -2 24 8 0 16 -7
20 -15z m43 -42 c3 -7 -4 -9 -16 -6 -12 3 -18 9 -15 15 7 11 26 6 31 -9z
m-102 -118 c6 -2 -10 -4 -35 -4 -25 0 -51 3 -59 8 -13 8 69 5 94 -4z m-2275
-5 c0 -5 -4 -10 -10 -10 -5 0 -10 5 -10 10 0 6 5 10 10 10 6 0 10 -4 10 -10z
m2583 -5 c1 -5 -6 -11 -15 -13 -11 -2 -18 3 -18 13 0 17 30 18 33 0z m-2373
-5 c0 -5 -2 -10 -4 -10 -3 0 -8 5 -11 10 -3 6 -1 10 4 10 6 0 11 -4 11 -10z
m907 -786 c-3 -3 -12 -4 -19 -1 -8 3 -5 6 6 6 11 1 17 -2 13 -5z"/>
<path d="M2154 4298 l-29 -33 35 30 c19 17 37 31 39 33 2 1 0 2 -5 2 -6 0 -23
-15 -40 -32z"/>
<path d="M3085 4200 c3 -5 8 -10 11 -10 2 0 4 5 4 10 0 6 -5 10 -11 10 -5 0
-7 -4 -4 -10z"/>
<path d="M1865 4010 c-3 -5 -12 -7 -19 -4 -8 3 -17 1 -21 -5 -3 -6 -1 -11 6
-11 8 0 8 -5 -2 -17 -7 -10 1 -5 19 11 18 17 32 31 32 33 0 7 -9 3 -15 -7z"/>
</g>
</svg>
