<?xml version="1.0" standalone="no"?>
<!DOCTYPE svg PUBLIC "-//W3C//DTD SVG 20010904//EN"
 "http://www.w3.org/TR/2001/REC-SVG-20010904/DTD/svg10.dtd">
<svg version="1.0" xmlns="http://www.w3.org/2000/svg"
 width="736.000000pt" height="981.000000pt" viewBox="0 0 736.000000 981.000000"
 preserveAspectRatio="xMidYMid meet">

<g transform="translate(0.000000,981.000000) scale(0.100000,-0.100000)"
fill="#000000" stroke="none">
<path d="M0 4905 l0 -4905 70 0 70 0 0 4905 0 4905 -70 0 -70 0 0 -4905z"/>
<path d="M7220 4905 l0 -4905 70 0 70 0 0 4905 0 4905 -70 0 -70 0 0 -4905z"/>
<path d="M3616 8964 c-4 -10 -4 -37 0 -61 5 -38 4 -43 -12 -43 -11 0 -37 12
-59 25 -68 42 -85 29 -36 -27 46 -54 55 -77 40 -104 -17 -32 -45 -30 -102 6
-77 48 -99 39 -47 -20 17 -18 30 -37 30 -42 0 -4 -20 -8 -44 -8 -51 0 -60 -12
-40 -58 13 -32 14 -33 64 -26 58 8 67 -7 25 -46 -25 -24 -33 -50 -15 -50 5 0
32 9 60 20 62 25 110 26 110 4 0 -8 -19 -38 -42 -65 -39 -46 -43 -63 -15 -65
7 0 24 8 39 18 59 40 65 9 9 -46 -42 -41 -52 -41 -70 1 -18 44 -69 73 -128 73
-44 0 -55 -4 -72 -26 -27 -34 -27 -64 0 -98 30 -38 14 -50 -74 -54 -87 -4
-114 -14 -147 -55 -21 -26 -25 -42 -25 -95 0 -59 2 -66 33 -93 18 -16 43 -29
57 -29 16 0 25 -6 25 -16 0 -12 -785 -810 -1529 -1553 l-64 -63 723 -723 c397
-397 721 -727 719 -733 -2 -6 -325 -332 -716 -725 -392 -393 -713 -721 -713
-729 0 -8 365 -378 810 -823 446 -444 810 -814 810 -822 0 -9 -14 -13 -41 -13
-35 0 -48 -6 -80 -39 -38 -37 -46 -63 -41 -124 3 -28 34 -65 70 -82 26 -13 52
-15 141 -9 102 6 111 5 140 -15 22 -16 31 -31 31 -50 0 -55 -56 -73 -66 -21
-5 25 -11 30 -34 30 -35 0 -45 -31 -24 -76 24 -51 56 -66 117 -59 46 6 54 4
74 -17 12 -13 29 -36 37 -53 15 -28 15 -31 -5 -47 -30 -25 -63 -22 -109 8 -47
31 -64 26 -26 -7 14 -12 26 -31 26 -41 0 -15 -8 -18 -54 -18 -60 0 -71 -8 -62
-46 6 -22 11 -24 60 -24 78 0 91 -20 43 -64 -36 -33 -47 -56 -27 -56 6 0 24
16 41 35 22 24 40 35 59 35 31 0 60 -23 60 -46 0 -19 -36 -91 -50 -99 -14 -9
-13 -25 3 -25 7 0 18 9 25 20 7 11 21 20 32 20 14 0 21 -9 25 -38 10 -57 13
-62 35 -62 45 0 62 19 58 63 -3 36 0 42 17 45 12 2 38 -9 58 -23 36 -23 67
-33 67 -19 0 3 -19 29 -42 56 -36 43 -40 53 -32 76 13 39 68 42 123 8 64 -41
82 -34 37 13 -38 38 -38 39 -17 51 12 6 29 10 39 9 44 -4 52 1 52 31 0 35 -3
36 -82 45 -32 4 -58 11 -58 17 0 5 14 23 30 38 17 15 30 31 30 34 0 13 -33 5
-80 -19 -60 -30 -96 -32 -110 -5 -13 25 -4 43 44 89 20 19 36 39 36 43 0 15
-27 8 -45 -12 -27 -30 -55 -26 -55 8 0 30 39 75 75 86 17 5 24 -2 40 -36 24
-50 57 -76 107 -83 88 -14 139 62 87 129 -29 37 -68 35 -75 -4 -8 -37 -28 -39
-50 -5 -16 24 -16 27 2 46 16 18 28 20 133 17 127 -3 162 7 221 62 25 23 30
36 30 75 0 77 -36 124 -108 139 -17 4 -32 10 -32 13 0 12 102 116 521 538 544
547 797 796 879 867 36 31 105 95 154 143 l89 87 -729 729 c-401 401 -729 735
-729 741 0 13 831 841 1223 1217 122 118 221 221 220 227 -2 7 -357 368 -790
802 -434 434 -788 795 -788 801 0 6 20 31 45 54 27 26 46 53 46 68 5 86 -12
120 -72 152 -29 16 -49 18 -147 12 l-113 -6 -30 30 c-26 26 -28 34 -19 51 10
18 14 19 27 9 8 -7 19 -23 23 -35 12 -30 55 -29 75 2 31 48 16 99 -41 134 -30
19 -44 22 -89 16 -52 -6 -55 -5 -79 27 -30 39 -32 50 -12 66 11 9 25 5 63 -17
26 -16 56 -29 66 -29 21 0 22 25 2 51 -23 31 -18 36 30 36 40 0 47 3 55 26 26
66 7 89 -70 88 -33 -1 -60 3 -60 8 0 5 16 24 35 42 38 36 47 76 18 76 -10 -1
-31 -19 -46 -41 -25 -36 -31 -40 -65 -37 -49 4 -52 26 -12 102 16 33 30 63 30
68 0 18 -39 6 -54 -17 -26 -40 -44 -32 -48 23 l-3 47 -51 3 c-41 2 -53 0 -58
-14z m174 -584 c0 -11 -7 -20 -15 -20 -8 0 -15 9 -15 20 0 11 7 20 15 20 8 0
15 -9 15 -20z m-360 -39 c16 -31 12 -51 -15 -63 -18 -8 -31 -8 -47 0 l-23 11
23 7 c16 5 22 14 22 35 0 34 24 39 40 10z m-118 -165 c-3 -15 2 -18 27 -14 17
3 31 2 31 -1 0 -10 -64 -71 -75 -71 -7 0 -17 11 -23 25 -9 18 -19 25 -41 25
-25 0 -30 -5 -36 -30 -9 -41 -39 -40 -54 1 -6 18 -11 36 -11 41 0 18 80 44
132 43 46 0 53 -3 50 -19z m738 -25 c0 -39 -28 -53 -51 -25 -10 13 -10 17 2
25 18 11 49 12 49 0z m118 -28 c2 -1 -1 -11 -8 -22 -13 -26 -30 -27 -30 -3 0
10 -7 28 -17 41 l-16 24 34 -19 c19 -10 35 -20 37 -21z m-542 -8 c-4 -20 -25
-72 -47 -117 -44 -92 -48 -112 -20 -103 15 5 18 1 13 -20 -2 -14 -9 -25 -16
-25 -18 0 -107 -191 -113 -245 -6 -51 -2 -53 39 -17 12 10 30 13 58 9 22 -3
42 -2 45 3 6 10 55 10 55 -1 0 -5 -8 -13 -18 -18 -15 -8 -18 -28 -20 -157 -2
-81 -7 -155 -12 -165 -5 -9 -29 -28 -54 -43 -24 -14 -46 -32 -49 -40 -7 -17
28 -50 68 -63 29 -9 30 -11 33 -85 3 -70 1 -80 -32 -141 -20 -36 -36 -75 -36
-86 0 -10 11 -43 25 -73 29 -62 30 -73 10 -112 -9 -16 -14 -35 -11 -42 3 -7
-7 -14 -22 -18 -36 -8 -70 -40 -111 -103 -29 -45 -39 -53 -82 -63 -69 -17 -61
-29 16 -24 36 3 65 1 65 -4 0 -5 -15 -20 -34 -33 -19 -13 -68 -50 -110 -81
-42 -32 -79 -58 -82 -58 -3 0 -27 -14 -52 -31 l-45 -31 -364 364 c-202 203
-363 372 -363 382 0 18 822 860 1012 1038 57 53 136 128 177 167 41 39 77 71
79 71 2 0 1 -16 -2 -35z m1004 -880 l864 -865 -154 -157 c-408 -416 -1155
-1163 -1163 -1163 -5 0 -85 75 -178 167 -169 166 -170 168 -167 208 l3 40 58
9 c69 10 76 27 10 24 l-48 -3 -7 90 c-17 196 -20 355 -9 369 7 8 31 19 56 25
55 14 74 37 24 28 -19 -3 -42 -8 -51 -12 -30 -12 -41 72 -18 135 7 19 14 41
16 48 2 7 22 12 54 12 48 0 74 19 28 21 -30 1 -59 6 -64 12 -13 13 14 64 55
105 42 42 50 46 96 46 50 1 66 18 23 24 -59 9 -77 85 -29 119 35 24 238 123
261 126 31 5 36 17 7 17 -22 0 -121 -31 -192 -60 -11 -5 -43 -16 -71 -26 -51
-17 -53 -17 -100 5 -26 13 -57 25 -68 27 -12 2 -22 8 -24 14 -6 16 -23 12 -41
-12 -28 -34 -51 -18 -51 36 0 46 23 80 113 166 l38 37 -11 63 c-6 35 -22 84
-35 109 -32 62 -39 96 -27 129 6 15 13 57 16 93 4 61 3 67 -16 72 -24 7 -15
27 11 27 10 0 24 7 31 15 7 8 19 15 26 15 8 0 22 16 31 35 16 34 16 36 -5 57
-18 19 -24 20 -48 9 -15 -6 -29 -10 -31 -7 -2 2 -6 23 -8 46 -5 45 -28 90 -47
90 -6 0 -17 -8 -24 -17 -12 -16 -13 -16 -14 9 0 32 -12 41 -51 40 -16 0 -29 3
-29 8 0 16 72 32 115 27 31 -5 46 -2 55 8 7 8 27 19 44 23 29 8 31 12 28 47
-2 25 -15 52 -36 79 -58 73 -79 115 -66 131 11 13 5 54 -9 65 -13 9 -50 80
-43 80 4 0 396 -389 872 -865z m-795 -2115 c715 -713 1384 -1378 1488 -1480
103 -101 187 -187 187 -190 0 -4 -82 -91 -183 -195 l-183 -189 -1454 1450
c-800 797 -1548 1541 -1663 1654 -114 112 -206 207 -205 211 2 4 83 92 182
194 l179 186 176 -173 c97 -95 761 -756 1476 -1468z m-338 1187 c17 -10 5 -37
-17 -37 -9 0 -25 -9 -35 -20 -16 -18 -17 -23 -5 -45 13 -24 40 -35 40 -16 0 5
9 11 20 14 29 8 25 -2 -20 -40 -22 -19 -40 -40 -40 -47 0 -7 -18 -26 -40 -41
-22 -15 -40 -32 -40 -38 0 -6 8 -4 18 5 15 13 66 38 77 38 3 0 5 -8 5 -19 0
-10 9 -21 20 -24 19 -5 21 -12 18 -78 l-3 -73 -33 -7 c-33 -7 -60 -24 -51 -33
2 -2 25 2 52 9 51 13 55 11 30 -17 -9 -11 -11 -18 -5 -18 8 0 12 -19 12 -52
l0 -52 -55 54 c-39 38 -53 60 -49 72 4 14 1 16 -11 12 -12 -5 -52 28 -146 122
-71 71 -129 132 -129 136 0 3 17 16 38 29 20 12 62 38 92 58 73 48 88 56 135
79 89 42 98 44 122 29z m-160 -1689 l173 -173 0 -160 c0 -112 -4 -165 -12
-173 -9 -9 -9 -12 0 -12 9 0 12 -219 12 -958 0 -633 3 -991 10 -1057 11 -94
40 -273 55 -340 5 -23 -194 171 -859 836 -476 476 -866 873 -866 882 0 8 80
91 177 184 185 175 317 307 343 341 13 16 295 309 685 709 50 51 94 93 100 93
5 0 87 -78 182 -172z m1255 -1248 c207 -205 382 -384 389 -397 13 -23 -6 -44
-547 -581 -308 -306 -597 -593 -643 -637 -79 -76 -82 -78 -67 -42 8 21 22 71
31 111 8 40 17 80 19 87 8 21 34 256 45 404 9 105 20 1050 21 1675 l0 125 188
-185 c103 -102 357 -354 564 -560z m-1231 -1677 c53 -56 54 -57 29 -64 -14 -4
-73 -7 -131 -8 -94 -1 -108 1 -124 19 -26 29 -10 74 26 78 22 3 27 -2 32 -27
4 -20 13 -31 23 -31 20 0 67 48 59 61 -8 12 3 29 19 29 7 0 37 -26 67 -57z
m810 6 c15 -29 -2 -64 -42 -84 -25 -13 -46 -15 -107 -10 -111 10 -116 15 -64
64 49 47 69 51 82 16 7 -19 17 -25 39 -25 24 0 29 5 35 30 7 36 39 41 57 9z
m-611 -214 c20 -21 22 -28 12 -47 -7 -13 -11 -36 -10 -53 2 -24 -1 -31 -18
-33 -11 -2 -28 6 -38 16 -15 17 -15 26 -6 68 21 88 22 89 60 49z"/>
<path d="M3225 6360 c4 -6 11 -8 16 -5 14 9 11 15 -7 15 -8 0 -12 -5 -9 -10z"/>
<path d="M4105 7710 c3 -5 10 -10 16 -10 5 0 9 5 9 10 0 6 -7 10 -16 10 -8 0
-12 -4 -9 -10z"/>
<path d="M4321 7505 c250 -252 323 -322 311 -300 -17 33 -452 465 -467 465 -5
0 65 -74 156 -165z"/>
<path d="M3990 3926 c0 -2 8 -10 18 -17 15 -13 16 -12 3 4 -13 16 -21 21 -21
13z"/>
<path d="M4210 3700 c0 -5 5 -10 11 -10 5 0 7 5 4 10 -3 6 -8 10 -11 10 -2 0
-4 -4 -4 -10z"/>
<path d="M2100 2900 c0 -5 5 -10 11 -10 5 0 7 5 4 10 -3 6 -8 10 -11 10 -2 0
-4 -4 -4 -10z"/>
<path d="M2284 2715 c8 -8 18 -15 22 -15 3 0 1 7 -6 15 -7 8 -17 15 -22 15 -5
0 -3 -7 6 -15z"/>
<path d="M2310 2689 c0 -8 400 -402 400 -394 0 11 -244 258 -332 337 -38 33
-68 58 -68 57z"/>
</g>
</svg>
